<svg width="24" height="24" viewBox="0 0 24 24" fill="none" xmlns="http://www.w3.org/2000/svg">
<path d="M4.32997 24C3.13221 24 2.11111 23.5767 1.26667 22.73C0.422222 21.8833 0 20.8611 0 19.6633C0 18.4655 0.423011 17.4444 1.26903 16.6C2.11508 15.7556 3.13651 15.3333 4.33333 15.3333H6.66667V8.66667H4.33333C3.13651 8.66667 2.11508 8.24332 1.26903 7.39663C0.423011 6.54994 0 5.52772 0 4.32997C0 3.13221 0.423344 2.11111 1.27003 1.26667C2.11672 0.422222 3.13894 0 4.3367 0C5.53446 0 6.55556 0.423011 7.4 1.26903C8.24444 2.11508 8.66667 3.13651 8.66667 4.33333V6.66667H15.3333V4.33333C15.3333 3.13651 15.7567 2.11508 16.6034 1.26903C17.4501 0.423011 18.4723 0 19.67 0C20.8678 0 21.8889 0.423345 22.7333 1.27003C23.5778 2.11672 24 3.13895 24 4.3367C24 5.53446 23.577 6.55556 22.731 7.4C21.8849 8.24444 20.8635 8.66667 19.6667 8.66667H17.3333V15.3333H19.6667C20.8635 15.3333 21.8849 15.7567 22.731 16.6034C23.577 17.4501 24 18.4723 24 19.67C24 20.8678 23.5767 21.8889 22.73 22.7333C21.8833 23.5778 20.8611 24 19.6633 24C18.4655 24 17.4444 23.577 16.6 22.731C15.7556 21.8849 15.3333 20.8635 15.3333 19.6667V17.3333H8.66667V19.6667C8.66667 20.8635 8.24332 21.8849 7.39663 22.731C6.54994 23.577 5.52772 24 4.32997 24ZM4.3294 22C4.97647 22 5.52778 21.7731 5.98333 21.3194C6.43889 20.8657 6.66667 20.3148 6.66667 19.6667V17.3333H4.33333C3.68518 17.3333 3.13426 17.5598 2.68057 18.0127C2.22686 18.4657 2 19.0157 2 19.6627C2 20.3098 2.22647 20.8611 2.6794 21.3167C3.13236 21.7722 3.68236 22 4.3294 22ZM19.6627 22C20.3098 22 20.8611 21.7735 21.3167 21.3206C21.7722 20.8676 22 20.3176 22 19.6706C22 19.0235 21.7731 18.4722 21.3194 18.0167C20.8657 17.5611 20.3148 17.3333 19.6667 17.3333H17.3333V19.6667C17.3333 20.3148 17.5598 20.8657 18.0127 21.3194C18.4657 21.7731 19.0157 22 19.6627 22ZM8.66667 15.3333H15.3333V8.66667H8.66667V15.3333ZM4.33333 6.66667H6.66667V4.33333C6.66667 3.68518 6.4402 3.13426 5.98727 2.68057C5.53431 2.22686 4.98431 2 4.33727 2C3.6902 2 3.13889 2.22647 2.68333 2.6794C2.22778 3.13236 2 3.68236 2 4.3294C2 4.97647 2.22686 5.52778 2.68057 5.98333C3.13426 6.43889 3.68518 6.66667 4.33333 6.66667ZM17.3333 6.66667H19.6667C20.3148 6.66667 20.8657 6.4402 21.3194 5.98727C21.7731 5.53431 22 4.98431 22 4.33727C22 3.6902 21.7735 3.13889 21.3206 2.68333C20.8676 2.22778 20.3176 2 19.6706 2C19.0235 2 18.4722 2.22686 18.0167 2.68057C17.5611 3.13426 17.3333 3.68518 17.3333 4.33333V6.66667Z" fill="#7F5AF0" />
</svg>
