<svg width="24" height="24" viewBox="0 0 24 24" fill="none" xmlns="http://www.w3.org/2000/svg">
<path d="M0.663158 15.1263C0.473684 15.1263 0.315789 15.0632 0.189474 14.9368C0.0631579 14.8105 0 14.6526 0 14.4632C0 14.2737 0.0631579 14.1158 0.189474 13.9895C0.315789 13.8632 0.473684 13.8 0.663158 13.8C0.852632 13.8 1.01053 13.8632 1.13684 13.9895C1.26316 14.1158 1.32632 14.2737 1.32632 14.4632C1.32632 14.6526 1.26316 14.8105 1.13684 14.9368C1.01053 15.0632 0.852632 15.1263 0.663158 15.1263ZM0.663158 10.2C0.473684 10.2 0.315789 10.1368 0.189474 10.0105C0.0631579 9.88421 0 9.72632 0 9.53684C0 9.34737 0.0631579 9.18947 0.189474 9.06316C0.315789 8.93684 0.473684 8.87368 0.663158 8.87368C0.852632 8.87368 1.01053 8.93684 1.13684 9.06316C1.26316 9.18947 1.32632 9.34737 1.32632 9.53684C1.32632 9.72632 1.26316 9.88421 1.13684 10.0105C1.01053 10.1368 0.852632 10.2 0.663158 10.2ZM4.42437 20.7789C4.08532 20.7789 3.8 20.6643 3.56842 20.4349C3.33684 20.2055 3.22105 19.9213 3.22105 19.5823C3.22105 19.2432 3.33574 18.9579 3.56511 18.7263C3.79445 18.4947 4.07866 18.3789 4.41774 18.3789C4.75679 18.3789 5.04211 18.4936 5.27368 18.723C5.50526 18.9523 5.62105 19.2366 5.62105 19.5756C5.62105 19.9147 5.50637 20.2 5.277 20.4316C5.04765 20.6632 4.76344 20.7789 4.42437 20.7789ZM4.42437 15.6632C4.08532 15.6632 3.8 15.5485 3.56842 15.3191C3.33684 15.0898 3.22105 14.8055 3.22105 14.4665C3.22105 14.1274 3.33574 13.8421 3.56511 13.6105C3.79445 13.3789 4.07866 13.2632 4.41774 13.2632C4.75679 13.2632 5.04211 13.3778 5.27368 13.6072C5.50526 13.8366 5.62105 14.1208 5.62105 14.4598C5.62105 14.7989 5.50637 15.0842 5.277 15.3158C5.04765 15.5474 4.76344 15.6632 4.42437 15.6632ZM4.42437 10.7368C4.08532 10.7368 3.8 10.6222 3.56842 10.3928C3.33684 10.1634 3.22105 9.87923 3.22105 9.54016C3.22105 9.2011 3.33574 8.91579 3.56511 8.68421C3.79445 8.45263 4.07866 8.33684 4.41774 8.33684C4.75679 8.33684 5.04211 8.45153 5.27368 8.68089C5.50526 8.91024 5.62105 9.19445 5.62105 9.53353C5.62105 9.87258 5.50637 10.1579 5.277 10.3895C5.04765 10.6211 4.76344 10.7368 4.42437 10.7368ZM4.42437 5.62105C4.08532 5.62105 3.8 5.50637 3.56842 5.277C3.33684 5.04765 3.22105 4.76344 3.22105 4.42437C3.22105 4.08532 3.33574 3.8 3.56511 3.56842C3.79445 3.33684 4.07866 3.22105 4.41774 3.22105C4.75679 3.22105 5.04211 3.33574 5.27368 3.56511C5.50526 3.79445 5.62105 4.07866 5.62105 4.41774C5.62105 4.75679 5.50637 5.04211 5.277 5.27368C5.04765 5.50526 4.76344 5.62105 4.42437 5.62105ZM9.53684 16.1684C9.06316 16.1684 8.66053 16.0026 8.32895 15.6711C7.99737 15.3395 7.83158 14.9368 7.83158 14.4632C7.83158 13.9895 7.99737 13.5868 8.32895 13.2553C8.66053 12.9237 9.06316 12.7579 9.53684 12.7579C10.0105 12.7579 10.4132 12.9237 10.7447 13.2553C11.0763 13.5868 11.2421 13.9895 11.2421 14.4632C11.2421 14.9368 11.0763 15.3395 10.7447 15.6711C10.4132 16.0026 10.0105 16.1684 9.53684 16.1684ZM9.53684 11.2421C9.06316 11.2421 8.66053 11.0763 8.32895 10.7447C7.99737 10.4132 7.83158 10.0105 7.83158 9.53684C7.83158 9.06316 7.99737 8.66053 8.32895 8.32895C8.66053 7.99737 9.06316 7.83158 9.53684 7.83158C10.0105 7.83158 10.4132 7.99737 10.7447 8.32895C11.0763 8.66053 11.2421 9.06316 11.2421 9.53684C11.2421 10.0105 11.0763 10.4132 10.7447 10.7447C10.4132 11.0763 10.0105 11.2421 9.53684 11.2421ZM9.54016 20.7789C9.20111 20.7789 8.91579 20.6643 8.68421 20.4349C8.45263 20.2055 8.33684 19.9213 8.33684 19.5823C8.33684 19.2432 8.45153 18.9579 8.68089 18.7263C8.91024 18.4947 9.19445 18.3789 9.53353 18.3789C9.87258 18.3789 10.1579 18.4936 10.3895 18.723C10.6211 18.9523 10.7368 19.2366 10.7368 19.5756C10.7368 19.9147 10.6222 20.2 10.3928 20.4316C10.1634 20.6632 9.87923 20.7789 9.54016 20.7789ZM9.54016 5.62105C9.20111 5.62105 8.91579 5.50637 8.68421 5.277C8.45263 5.04765 8.33684 4.76344 8.33684 4.42437C8.33684 4.08532 8.45153 3.8 8.68089 3.56842C8.91024 3.33684 9.19445 3.22105 9.53353 3.22105C9.87258 3.22105 10.1579 3.33574 10.3895 3.56511C10.6211 3.79445 10.7368 4.07866 10.7368 4.41774C10.7368 4.75679 10.6222 5.04211 10.3928 5.27368C10.1634 5.50526 9.87923 5.62105 9.54016 5.62105ZM9.53684 24C9.34737 24 9.18947 23.9368 9.06316 23.8105C8.93684 23.6842 8.87368 23.5263 8.87368 23.3368C8.87368 23.1474 8.93684 22.9895 9.06316 22.8632C9.18947 22.7368 9.34737 22.6737 9.53684 22.6737C9.72632 22.6737 9.88421 22.7368 10.0105 22.8632C10.1368 22.9895 10.2 23.1474 10.2 23.3368C10.2 23.5263 10.1368 23.6842 10.0105 23.8105C9.88421 23.9368 9.72632 24 9.53684 24ZM9.53684 1.32632C9.34737 1.32632 9.18947 1.26316 9.06316 1.13684C8.93684 1.01053 8.87368 0.852632 8.87368 0.663158C8.87368 0.473684 8.93684 0.315789 9.06316 0.189474C9.18947 0.0631579 9.34737 0 9.53684 0C9.72632 0 9.88421 0.0631579 10.0105 0.189474C10.1368 0.315789 10.2 0.473684 10.2 0.663158C10.2 0.852632 10.1368 1.01053 10.0105 1.13684C9.88421 1.26316 9.72632 1.32632 9.53684 1.32632ZM14.4632 16.1684C13.9895 16.1684 13.5868 16.0026 13.2553 15.6711C12.9237 15.3395 12.7579 14.9368 12.7579 14.4632C12.7579 13.9895 12.9237 13.5868 13.2553 13.2553C13.5868 12.9237 13.9895 12.7579 14.4632 12.7579C14.9368 12.7579 15.3395 12.9237 15.6711 13.2553C16.0026 13.5868 16.1684 13.9895 16.1684 14.4632C16.1684 14.9368 16.0026 15.3395 15.6711 15.6711C15.3395 16.0026 14.9368 16.1684 14.4632 16.1684ZM14.4632 11.2421C13.9895 11.2421 13.5868 11.0763 13.2553 10.7447C12.9237 10.4132 12.7579 10.0105 12.7579 9.53684C12.7579 9.06316 12.9237 8.66053 13.2553 8.32895C13.5868 7.99737 13.9895 7.83158 14.4632 7.83158C14.9368 7.83158 15.3395 7.99737 15.6711 8.32895C16.0026 8.66053 16.1684 9.06316 16.1684 9.53684C16.1684 10.0105 16.0026 10.4132 15.6711 10.7447C15.3395 11.0763 14.9368 11.2421 14.4632 11.2421ZM14.4665 20.7789C14.1274 20.7789 13.8421 20.6643 13.6105 20.4349C13.3789 20.2055 13.2632 19.9213 13.2632 19.5823C13.2632 19.2432 13.3778 18.9579 13.6072 18.7263C13.8366 18.4947 14.1208 18.3789 14.4598 18.3789C14.7989 18.3789 15.0842 18.4936 15.3158 18.723C15.5474 18.9523 15.6632 19.2366 15.6632 19.5756C15.6632 19.9147 15.5485 20.2 15.3191 20.4316C15.0898 20.6632 14.8055 20.7789 14.4665 20.7789ZM14.4665 5.62105C14.1274 5.62105 13.8421 5.50637 13.6105 5.277C13.3789 5.04765 13.2632 4.76344 13.2632 4.42437C13.2632 4.08532 13.3778 3.8 13.6072 3.56842C13.8366 3.33684 14.1208 3.22105 14.4598 3.22105C14.7989 3.22105 15.0842 3.33574 15.3158 3.56511C15.5474 3.79445 15.6632 4.07866 15.6632 4.41774C15.6632 4.75679 15.5485 5.04211 15.3191 5.27368C15.0898 5.50526 14.8055 5.62105 14.4665 5.62105ZM14.4632 1.32632C14.2737 1.32632 14.1158 1.26316 13.9895 1.13684C13.8632 1.01053 13.8 0.852632 13.8 0.663158C13.8 0.473684 13.8632 0.315789 13.9895 0.189474C14.1158 0.0631579 14.2737 0 14.4632 0C14.6526 0 14.8105 0.0631579 14.9368 0.189474C15.0632 0.315789 15.1263 0.473684 15.1263 0.663158C15.1263 0.852632 15.0632 1.01053 14.9368 1.13684C14.8105 1.26316 14.6526 1.32632 14.4632 1.32632ZM14.6526 24C14.4632 24 14.3053 23.9368 14.1789 23.8105C14.0526 23.6842 13.9895 23.5263 13.9895 23.3368C13.9895 23.1474 14.0526 22.9895 14.1789 22.8632C14.3053 22.7368 14.4632 22.6737 14.6526 22.6737C14.8421 22.6737 15 22.7368 15.1263 22.8632C15.2526 22.9895 15.3158 23.1474 15.3158 23.3368C15.3158 23.5263 15.2526 23.6842 15.1263 23.8105C15 23.9368 14.8421 24 14.6526 24ZM19.5823 20.7789C19.2432 20.7789 18.9579 20.6643 18.7263 20.4349C18.4947 20.2055 18.3789 19.9213 18.3789 19.5823C18.3789 19.2432 18.4936 18.9579 18.723 18.7263C18.9523 18.4947 19.2366 18.3789 19.5756 18.3789C19.9147 18.3789 20.2 18.4936 20.4316 18.723C20.6632 18.9523 20.7789 19.2366 20.7789 19.5756C20.7789 19.9147 20.6643 20.2 20.4349 20.4316C20.2055 20.6632 19.9213 20.7789 19.5823 20.7789ZM19.5823 15.6632C19.2432 15.6632 18.9579 15.5485 18.7263 15.3191C18.4947 15.0898 18.3789 14.8055 18.3789 14.4665C18.3789 14.1274 18.4936 13.8421 18.723 13.6105C18.9523 13.3789 19.2366 13.2632 19.5756 13.2632C19.9147 13.2632 20.2 13.3778 20.4316 13.6072C20.6632 13.8366 20.7789 14.1208 20.7789 14.4598C20.7789 14.7989 20.6643 15.0842 20.4349 15.3158C20.2055 15.5474 19.9213 15.6632 19.5823 15.6632ZM19.5823 10.7368C19.2432 10.7368 18.9579 10.6222 18.7263 10.3928C18.4947 10.1634 18.3789 9.87923 18.3789 9.54016C18.3789 9.2011 18.4936 8.91579 18.723 8.68421C18.9523 8.45263 19.2366 8.33684 19.5756 8.33684C19.9147 8.33684 20.2 8.45153 20.4316 8.68089C20.6632 8.91024 20.7789 9.19445 20.7789 9.53353C20.7789 9.87258 20.6643 10.1579 20.4349 10.3895C20.2055 10.6211 19.9213 10.7368 19.5823 10.7368ZM19.5823 5.62105C19.2432 5.62105 18.9579 5.50637 18.7263 5.277C18.4947 5.04765 18.3789 4.76344 18.3789 4.42437C18.3789 4.08532 18.4936 3.8 18.723 3.56842C18.9523 3.33684 19.2366 3.22105 19.5756 3.22105C19.9147 3.22105 20.2 3.33574 20.4316 3.56511C20.6632 3.79445 20.7789 4.07866 20.7789 4.41774C20.7789 4.75679 20.6643 5.04211 20.4349 5.27368C20.2055 5.50526 19.9213 5.62105 19.5823 5.62105ZM23.3368 15.1263C23.1474 15.1263 22.9895 15.0632 22.8632 14.9368C22.7368 14.8105 22.6737 14.6526 22.6737 14.4632C22.6737 14.2737 22.7368 14.1158 22.8632 13.9895C22.9895 13.8632 23.1474 13.8 23.3368 13.8C23.5263 13.8 23.6842 13.8632 23.8105 13.9895C23.9368 14.1158 24 14.2737 24 14.4632C24 14.6526 23.9368 14.8105 23.8105 14.9368C23.6842 15.0632 23.5263 15.1263 23.3368 15.1263ZM23.3368 10.2C23.1474 10.2 22.9895 10.1368 22.8632 10.0105C22.7368 9.88421 22.6737 9.72632 22.6737 9.53684C22.6737 9.34737 22.7368 9.18947 22.8632 9.06316C22.9895 8.93684 23.1474 8.87368 23.3368 8.87368C23.5263 8.87368 23.6842 8.93684 23.8105 9.06316C23.9368 9.18947 24 9.34737 24 9.53684C24 9.72632 23.9368 9.88421 23.8105 10.0105C23.6842 10.1368 23.5263 10.2 23.3368 10.2Z" fill="#7F5AF0" />
</svg>
